<svg width="2179" height="1128" viewBox="0 0 2179 1128" fill="none" xmlns="http://www.w3.org/2000/svg">
    <g filter="url(#filter0_d_13_464)">
        <path fill-rule="evenodd" clip-rule="evenodd" d="M840.499 497.44C840.5 497.517 840.5 497.598 840.5 497.761V561.854C840.5 562.312 840.5 562.541 840.495 562.699C840.49 562.846 840.483 562.991 840.472 563.136C840.473 563.19 840.473 563.243 840.473 563.297L840.139 627.651C840.121 631.159 838.266 634.402 835.25 636.195L644.184 749.796C643.409 750.257 642.524 750.5 641.622 750.5C638.854 750.5 636.61 748.256 636.61 745.487V665.1C636.61 661.75 638.287 658.622 641.078 656.769L796.094 553.842C796.187 553.781 796.278 553.717 796.367 553.65L642.02 461.497L642.019 461.496C641.878 461.412 641.807 461.37 641.741 461.329C638.841 459.536 637.054 456.388 637.001 452.979C637 452.901 637 452.819 637 452.653V385.415C637 384.951 637 384.719 637.005 384.56C637.245 377.027 645.416 372.457 651.96 376.195C652.098 376.274 652.296 376.395 652.691 376.638L835.591 488.985L835.591 488.985C835.73 489.07 835.799 489.112 835.864 489.154C838.705 490.959 840.447 494.074 840.499 497.44Z" fill="#75FFA4"/>
    </g>
    <path fill-rule="evenodd" clip-rule="evenodd" d="M614 579V745C614 750.523 609.523 755 604 755H551C545.477 755 541 750.523 541 745V579V552V386C541 380.477 545.477 376 551 376H604C609.523 376 614 380.477 614 386V552V579Z" fill="#2E2E2E"/>
    <path d="M1010.24 617.863V592.082H1054.77V628.703L1025.48 658H929.969V475.334L961.609 446.184H1054.77V526.164H1010.24V486.467H974.5V617.863H1010.24ZM1096.64 446.184H1224.53V658H1096.64V446.184ZM1141.18 617.863H1180.14V486.467H1141.18V617.863ZM1268.01 446.184H1359.12L1393.25 479.729V628.703L1363.52 658H1268.01V446.184ZM1348.72 617.863V486.467H1312.39V617.863H1348.72ZM1434.98 446.184H1537.81V486.467H1478.92V527.336H1534.88V566.887H1479.51V617.863H1539.27V658H1434.98V446.184Z" fill="white"/>
    <defs>
        <filter id="filter0_d_13_464" x="632.61" y="374.865" width="211.89" height="383.635" filterUnits="userSpaceOnUse" color-interpolation-filters="sRGB">
            <feFlood flood-opacity="0" result="BackgroundImageFix"/>
            <feColorMatrix in="SourceAlpha" type="matrix" values="0 0 0 0 0 0 0 0 0 0 0 0 0 0 0 0 0 0 127 0" result="hardAlpha"/>
            <feOffset dy="4"/>
            <feGaussianBlur stdDeviation="2"/>
            <feComposite in2="hardAlpha" operator="out"/>
            <feColorMatrix type="matrix" values="0 0 0 0 0 0 0 0 0 0 0 0 0 0 0 0 0 0 0.25 0"/>
            <feBlend mode="normal" in2="BackgroundImageFix" result="effect1_dropShadow_13_464"/>
            <feBlend mode="normal" in="SourceGraphic" in2="effect1_dropShadow_13_464" result="shape"/>
        </filter>
    </defs>
</svg>
