<svg width="93" height="94" viewBox="0 0 93 94" fill="none" xmlns="http://www.w3.org/2000/svg">
    <g filter="url(#filter0_d_46_45)">
        <mask id="path-1-inside-1_46_45" fill="white">
            <path fill-rule="evenodd" clip-rule="evenodd" d="M43.8774 39.4578C43.8774 34.9294 47.6803 31.0909 52.5808 31.0909C57.4814 31.0909 61.2843 34.9294 61.2843 39.4578C61.2843 43.9862 57.4814 47.8246 52.5808 47.8246C47.6803 47.8246 43.8774 43.9862 43.8774 39.4578ZM52.5808 24C43.9516 24 36.7865 30.8282 36.7865 39.4578C36.7865 42.7534 37.8315 45.7863 39.604 48.2765L24 63.4517L29.7742 69.0672L45.8436 53.4393C47.8944 54.3874 50.181 54.9155 52.5808 54.9155C61.21 54.9155 68.3752 48.0873 68.3752 39.4578C68.3752 30.8282 61.21 24 52.5808 24Z"/>
        </mask>
        <path fill-rule="evenodd" clip-rule="evenodd" d="M43.8774 39.4578C43.8774 34.9294 47.6803 31.0909 52.5808 31.0909C57.4814 31.0909 61.2843 34.9294 61.2843 39.4578C61.2843 43.9862 57.4814 47.8246 52.5808 47.8246C47.6803 47.8246 43.8774 43.9862 43.8774 39.4578ZM52.5808 24C43.9516 24 36.7865 30.8282 36.7865 39.4578C36.7865 42.7534 37.8315 45.7863 39.604 48.2765L24 63.4517L29.7742 69.0672L45.8436 53.4393C47.8944 54.3874 50.181 54.9155 52.5808 54.9155C61.21 54.9155 68.3752 48.0873 68.3752 39.4578C68.3752 30.8282 61.21 24 52.5808 24Z" fill="white"/>
        <path d="M39.604 48.2765L60.5196 69.7831L78.9664 51.8433L64.0448 30.8798L39.604 48.2765ZM24 63.4517L3.08435 41.945L-19.03 63.4517L3.08435 84.9583L24 63.4517ZM29.7742 69.0672L8.85854 90.5738L29.7742 110.915L50.6898 90.5738L29.7742 69.0672ZM45.8436 53.4393L58.433 26.2087L39.713 17.5539L24.928 31.9327L45.8436 53.4393ZM52.5808 1.09091C31.805 1.09091 13.8774 17.6759 13.8774 39.4578H73.8774C73.8774 52.1828 63.5556 61.0909 52.5808 61.0909V1.09091ZM91.2843 39.4578C91.2843 17.6759 73.3567 1.09091 52.5808 1.09091V61.0909C41.6061 61.0909 31.2843 52.1828 31.2843 39.4578H91.2843ZM52.5808 77.8246C73.3567 77.8246 91.2843 61.2396 91.2843 39.4578H31.2843C31.2843 26.7328 41.6061 17.8246 52.5808 17.8246V77.8246ZM13.8774 39.4578C13.8774 61.2396 31.805 77.8246 52.5808 77.8246V17.8246C63.5556 17.8246 73.8774 26.7328 73.8774 39.4578H13.8774ZM66.7865 39.4578C66.7865 48.2325 59.6719 54 52.5808 54V-6C28.2314 -6 6.78648 13.4239 6.78648 39.4578H66.7865ZM64.0448 30.8798C65.747 33.2712 66.7865 36.2782 66.7865 39.4578H6.78648C6.78648 49.2286 9.916 58.3014 15.1631 65.6732L64.0448 30.8798ZM44.9156 84.9583L60.5196 69.7831L18.6883 26.7698L3.08435 41.945L44.9156 84.9583ZM50.6898 47.5605L44.9157 41.945L3.08435 84.9583L8.85854 90.5738L50.6898 47.5605ZM24.928 31.9327L8.85854 47.5605L50.6898 90.5738L66.7593 74.9459L24.928 31.9327ZM52.5808 24.9155C54.6118 24.9155 56.6138 25.3676 58.433 26.2087L33.2542 80.6699C39.175 83.4072 45.7502 84.9155 52.5808 84.9155V24.9155ZM38.3752 39.4578C38.3752 30.683 45.4898 24.9155 52.5808 24.9155V84.9155C76.9303 84.9155 98.3752 65.4916 98.3752 39.4578H38.3752ZM52.5808 54C45.4898 54 38.3752 48.2325 38.3752 39.4578H98.3752C98.3752 13.4239 76.9303 -6 52.5808 -6V54Z" fill="white" mask="url(#path-1-inside-1_46_45)"/>
    </g>
    <defs>
        <filter id="filter0_d_46_45" x="0" y="0" width="92.3752" height="93.0671" filterUnits="userSpaceOnUse" color-interpolation-filters="sRGB">
            <feFlood flood-opacity="0" result="BackgroundImageFix"/>
            <feColorMatrix in="SourceAlpha" type="matrix" values="0 0 0 0 0 0 0 0 0 0 0 0 0 0 0 0 0 0 127 0" result="hardAlpha"/>
            <feOffset/>
            <feGaussianBlur stdDeviation="12"/>
            <feComposite in2="hardAlpha" operator="out"/>
            <feColorMatrix type="matrix" values="0 0 0 0 1 0 0 0 0 1 0 0 0 0 1 0 0 0 0.25 0"/>
            <feBlend mode="normal" in2="BackgroundImageFix" result="effect1_dropShadow_46_45"/>
            <feBlend mode="normal" in="SourceGraphic" in2="effect1_dropShadow_46_45" result="shape"/>
        </filter>
    </defs>
</svg>
