<svg width="84" height="44" viewBox="0 0 84 44" fill="none" xmlns="http://www.w3.org/2000/svg">
    <path d="M29.2292 27.5383L35.7624 21.005C36.1633 20.6041 36.1633 19.9541 35.7624 19.5532C35.3615 19.1523 34.7115 19.1523 34.3106 19.5532L29.5298 24.3339V11.0385C35.0516 11.5558 39.3731 16.2035 39.3731 21.8605C39.3731 27.8638 34.5065 32.7304 28.5032 32.7304C22.5 32.7304 17.6334 27.8638 17.6334 21.8605C17.6334 16.2035 21.9548 11.5558 27.4766 11.0385V24.3339L22.6959 19.5532C22.295 19.1523 21.645 19.1523 21.2441 19.5532C20.8432 19.9541 20.8432 20.6041 21.2441 21.005L27.7773 27.5383C28.1782 27.9392 28.8282 27.9392 29.2292 27.5383Z" fill="white"/>
    <path fill-rule="evenodd" clip-rule="evenodd" d="M0 6.76348C0 3.02811 3.02811 0 6.76348 0H50.1222C53.8576 0 56.8857 3.02811 56.8857 6.76348V12.7444L84 2.15012V39.8678L56.8857 30.0516V36.8368C56.8857 40.5721 53.8576 43.6003 50.1222 43.6003H6.76348C3.02811 43.6003 0 40.5721 0 36.8368V6.76348ZM6.76348 4.22717H50.1222C51.523 4.22717 52.6585 5.36271 52.6585 6.76348V36.8368C52.6585 38.2375 51.523 39.3731 50.1222 39.3731H6.76348C5.36272 39.3731 4.22717 38.2375 4.22717 36.8368V6.76348C4.22717 5.36271 5.36272 4.22717 6.76348 4.22717ZM56.8857 26.0697L80.2559 34.5304V7.63276L56.8857 16.7642V26.0697Z" fill="white"/>
</svg>
